<svg xmlns="http://www.w3.org/2000/svg" width="256" height="256" viewBox="0 0 100 100"><rect width="100" height="100" rx="20" fill="#9b9b9b"></rect><path fill="#fff" d="M25.54 61.04L17.11 48.89L7.18 62.77Q6.64 62.88 6.10 62.88L6.10 62.88Q5.02 62.88 4.37 62.37Q3.72 61.85 3.72 60.93L3.72 60.93Q3.72 60.23 4.07 59.64Q4.42 59.04 4.96 58.29L4.96 58.29L14.47 45.87L3.94 31.50Q4.21 30.59 4.83 29.97Q5.45 29.34 6.53 29.34L6.53 29.34Q7.39 29.34 7.99 29.86Q8.58 30.37 9.23 31.29L9.23 31.29L17.22 42.74L26.78 29.51Q27.05 29.45 27.32 29.43Q27.59 29.40 27.91 29.40L27.91 29.40Q29.05 29.40 29.62 29.94Q30.18 30.48 30.18 31.29L30.18 31.29Q30.18 31.88 29.89 32.45Q29.59 33.02 29.16 33.61L29.16 33.61Q26.89 36.63 24.57 39.66Q22.24 42.68 19.81 45.76L19.81 45.76L30.67 60.77Q30.40 61.69 29.80 62.28Q29.21 62.88 28.18 62.88L28.18 62.88Q27.32 62.88 26.75 62.45Q26.19 62.01 25.54 61.04L25.54 61.04ZM36.28 33.07L36.28 33.07Q36.28 32.37 37.01 31.64Q37.74 30.91 38.98 30.32Q40.23 29.72 41.90 29.37Q43.57 29.02 45.46 29.02L45.46 29.02Q50.70 29.02 53.65 31.56Q56.59 34.10 56.59 38.42L56.59 38.42Q56.59 39.87 56.21 41.31Q55.83 42.74 54.97 44.22Q54.10 45.71 52.70 47.33Q51.30 48.95 49.30 50.78L49.30 50.78L40.50 58.94L56.53 58.94Q56.75 59.21 56.91 59.64Q57.07 60.07 57.07 60.66L57.07 60.66Q57.07 62.50 55.40 62.50L55.40 62.50L36.34 62.50Q35.26 61.74 35.26 60.34L35.26 60.34Q35.26 58.77 36.55 57.53L36.55 57.53L46.27 48.19Q47.89 46.62 49.03 45.33Q50.16 44.03 50.84 42.90Q51.51 41.76 51.81 40.68Q52.11 39.60 52.11 38.47L52.11 38.47Q52.11 35.88 50.38 34.29Q48.65 32.69 45.14 32.69L45.14 32.69Q42.71 32.69 40.87 33.50Q39.04 34.31 37.80 35.23L37.80 35.23Q37.20 34.96 36.74 34.42Q36.28 33.88 36.28 33.07ZM94.87 46.08L94.87 46.08Q94.87 52.67 92.04 56.78Q89.20 60.88 84.67 62.39L84.67 62.39Q86.67 63.47 88.21 64.26Q89.74 65.04 91.07 65.63Q92.39 66.23 93.61 66.71Q94.82 67.20 96.17 67.68L96.17 67.68Q96.28 68.06 96.28 68.31Q96.28 68.55 96.28 68.76L96.28 68.76Q96.28 69.79 95.66 70.41Q95.04 71.03 93.90 71.03L93.90 71.03Q92.17 71.03 89.39 69.55Q86.61 68.06 83.05 65.63L83.05 65.63L79.48 63.20L79.21 63.20Q75.87 63.20 73.00 62.10Q70.14 60.99 68.04 58.86Q65.93 56.72 64.74 53.51Q63.55 50.30 63.55 46.08L63.55 46.08Q63.55 41.87 64.77 38.69Q65.98 35.50 68.09 33.34Q70.20 31.18 73.06 30.07Q75.92 28.97 79.21 28.97L79.21 28.97Q82.51 28.97 85.37 30.07Q88.23 31.18 90.34 33.34Q92.44 35.50 93.66 38.69Q94.87 41.87 94.87 46.08ZM90.39 46.08L90.39 46.08Q90.39 39.60 87.34 36.15Q84.29 32.69 79.21 32.69L79.21 32.69Q76.68 32.69 74.62 33.58Q72.57 34.47 71.11 36.18Q69.66 37.88 68.87 40.36Q68.09 42.84 68.09 46.08L68.09 46.08Q68.09 52.56 71.11 56.02Q74.14 59.48 79.21 59.48L79.21 59.48Q84.34 59.48 87.37 56.02Q90.39 52.56 90.39 46.08Z"></path></svg>